<mxfile host="app.diagrams.net" modified="2023-05-19T04:50:09.800Z" agent="Mozilla/5.0 (Windows NT 10.0; Win64; x64) AppleWebKit/537.36 (KHTML, like Gecko) Chrome/115.0.0.0 Safari/537.36 Edg/115.0.0.0" etag="qT5sqLmZ8iXpSY815sbG" version="21.3.0" type="github">
  <diagram name="第 1 页" id="uWxImMR4UQMLqLrs5gwQ">
    <mxGraphModel dx="1422" dy="779" grid="1" gridSize="10" guides="1" tooltips="1" connect="1" arrows="1" fold="1" page="1" pageScale="1" pageWidth="827" pageHeight="1169" math="0" shadow="0">
      <root>
        <mxCell id="0" />
        <mxCell id="1" parent="0" />
        <mxCell id="t-FpY4STqcNp72VoTmDb-1" value="在线交流" style="rounded=1;whiteSpace=wrap;html=1;fontFamily=Helvetica;fontStyle=1;shape=ellipse;perimeter=ellipsePerimeter;" parent="1" vertex="1">
          <mxGeometry x="310" y="360" width="120" height="60" as="geometry" />
        </mxCell>
        <mxCell id="t-FpY4STqcNp72VoTmDb-2" style="rounded=0;orthogonalLoop=1;jettySize=auto;html=1;entryX=0;entryY=0.5;entryDx=0;entryDy=0;" parent="1" source="t-FpY4STqcNp72VoTmDb-7" target="t-FpY4STqcNp72VoTmDb-1" edge="1">
          <mxGeometry relative="1" as="geometry">
            <mxPoint x="350" y="390" as="targetPoint" />
          </mxGeometry>
        </mxCell>
        <mxCell id="t-FpY4STqcNp72VoTmDb-3" style="edgeStyle=none;shape=connector;rounded=0;orthogonalLoop=1;jettySize=auto;html=1;entryX=0;entryY=0.5;entryDx=0;entryDy=0;labelBackgroundColor=default;fontFamily=Helvetica;fontSize=12;fontColor=default;endArrow=classic;exitX=1;exitY=0.3333333333333333;exitDx=0;exitDy=0;exitPerimeter=0;" parent="1" source="t-FpY4STqcNp72VoTmDb-7" target="t-FpY4STqcNp72VoTmDb-8" edge="1">
          <mxGeometry relative="1" as="geometry" />
        </mxCell>
        <mxCell id="t-FpY4STqcNp72VoTmDb-4" style="edgeStyle=none;shape=connector;rounded=0;orthogonalLoop=1;jettySize=auto;html=1;labelBackgroundColor=default;fontFamily=Helvetica;fontSize=12;fontColor=default;endArrow=classic;entryX=0;entryY=0.5;entryDx=0;entryDy=0;exitX=1;exitY=0.3333333333333333;exitDx=0;exitDy=0;exitPerimeter=0;" parent="1" source="t-FpY4STqcNp72VoTmDb-7" target="t-FpY4STqcNp72VoTmDb-9" edge="1">
          <mxGeometry relative="1" as="geometry">
            <mxPoint x="310" y="330.0000000000001" as="targetPoint" />
          </mxGeometry>
        </mxCell>
        <mxCell id="t-FpY4STqcNp72VoTmDb-5" style="edgeStyle=none;shape=connector;rounded=0;orthogonalLoop=1;jettySize=auto;html=1;entryX=0;entryY=0.5;entryDx=0;entryDy=0;labelBackgroundColor=default;fontFamily=Helvetica;fontSize=12;fontColor=default;endArrow=classic;exitX=1;exitY=0.3333333333333333;exitDx=0;exitDy=0;exitPerimeter=0;" parent="1" source="t-FpY4STqcNp72VoTmDb-7" target="t-FpY4STqcNp72VoTmDb-10" edge="1">
          <mxGeometry relative="1" as="geometry" />
        </mxCell>
        <mxCell id="t-FpY4STqcNp72VoTmDb-14" style="edgeStyle=none;shape=connector;rounded=0;orthogonalLoop=1;jettySize=auto;html=1;exitX=1;exitY=0.3333333333333333;exitDx=0;exitDy=0;exitPerimeter=0;entryX=0;entryY=0.5;entryDx=0;entryDy=0;labelBackgroundColor=default;fontFamily=Helvetica;fontSize=12;fontColor=default;endArrow=classic;" parent="1" source="t-FpY4STqcNp72VoTmDb-7" target="t-FpY4STqcNp72VoTmDb-11" edge="1">
          <mxGeometry relative="1" as="geometry" />
        </mxCell>
        <mxCell id="t-FpY4STqcNp72VoTmDb-16" style="edgeStyle=none;shape=connector;rounded=0;orthogonalLoop=1;jettySize=auto;html=1;exitX=1;exitY=0.3333333333333333;exitDx=0;exitDy=0;exitPerimeter=0;entryX=0;entryY=0.5;entryDx=0;entryDy=0;labelBackgroundColor=default;fontFamily=Helvetica;fontSize=12;fontColor=default;endArrow=classic;" parent="1" source="t-FpY4STqcNp72VoTmDb-7" target="t-FpY4STqcNp72VoTmDb-15" edge="1">
          <mxGeometry relative="1" as="geometry" />
        </mxCell>
        <mxCell id="t-FpY4STqcNp72VoTmDb-7" value="教师" style="shape=umlActor;verticalLabelPosition=bottom;verticalAlign=top;outlineConnect=0;labelBackgroundColor=none;fontStyle=1;strokeWidth=1;fontFamily=Times New Roman;" parent="1" vertex="1">
          <mxGeometry x="100" y="440" width="60" height="100" as="geometry" />
        </mxCell>
        <mxCell id="t-FpY4STqcNp72VoTmDb-8" value="管理知识学习" style="rounded=1;whiteSpace=wrap;html=1;fontFamily=Helvetica;fontStyle=1;shape=ellipse;perimeter=ellipsePerimeter;" parent="1" vertex="1">
          <mxGeometry x="310" y="430" width="120" height="60" as="geometry" />
        </mxCell>
        <mxCell id="t-FpY4STqcNp72VoTmDb-9" value="解答问题" style="rounded=1;whiteSpace=wrap;html=1;fontFamily=Helvetica;fontStyle=1;shape=ellipse;perimeter=ellipsePerimeter;" parent="1" vertex="1">
          <mxGeometry x="310" y="570" width="120" height="60" as="geometry" />
        </mxCell>
        <mxCell id="t-FpY4STqcNp72VoTmDb-10" value="个人信息" style="rounded=1;whiteSpace=wrap;html=1;fontFamily=Helvetica;fontStyle=1;shape=ellipse;perimeter=ellipsePerimeter;" parent="1" vertex="1">
          <mxGeometry x="310" y="710" width="120" height="60" as="geometry" />
        </mxCell>
        <mxCell id="t-FpY4STqcNp72VoTmDb-11" value="发送私信" style="rounded=1;whiteSpace=wrap;html=1;fontFamily=Helvetica;fontStyle=1;shape=ellipse;perimeter=ellipsePerimeter;" parent="1" vertex="1">
          <mxGeometry x="310" y="640" width="120" height="60" as="geometry" />
        </mxCell>
        <mxCell id="t-FpY4STqcNp72VoTmDb-15" value="审核问题" style="rounded=1;whiteSpace=wrap;html=1;fontFamily=Helvetica;fontStyle=1;shape=ellipse;perimeter=ellipsePerimeter;" parent="1" vertex="1">
          <mxGeometry x="310" y="500" width="120" height="60" as="geometry" />
        </mxCell>
      </root>
    </mxGraphModel>
  </diagram>
</mxfile>
